------------Log start------------
Input #0, matroska,webm, from 'data/65b2d70297d5832cdc698713/1706223419748/record_out/{6b08378b-c367-48f8-bc9d-b8500f701e81}-audio.webm':
  Metadata:
    encoder         : ebml-go.webm.BlockWriter
    creation_time   : 2024-01-25T21:47:47.800000Z
  Duration: N/A, start: 0.000000, bitrate: N/A
  Stream #0:0(eng): Subtitle: webvtt (default) (metadata)
    Metadata:
      title           : VttAudioDroppedPacketMeta
  Stream #0:1(eng): Audio: opus, 48000 Hz, stereo, fltp (default)
    Metadata:
      title           : Audio
Input #1, png_pipe, from 'data/black-bg.png':
  Duration: N/A, bitrate: N/A
  Stream #1:0: Video: png, rgb24(pc), 1280x720 [SAR 3779:3779 DAR 16:9], 25 fps, 25 tbr, 25 tbn, 25 tbc
Input #2, png_pipe, from 'data/black-bg.png':
  Duration: N/A, bitrate: N/A
  Stream #2:0: Video: png, rgb24(pc), 1280x720 [SAR 3779:3779 DAR 16:9], 25 fps, 25 tbr, 25 tbn, 25 tbc
Input #3, lavfi, from 'anullsrc':
  Duration: N/A, start: 0.000000, bitrate: 705 kb/s
  Stream #3:0: Audio: pcm_u8, 44100 Hz, stereo, u8, 705 kb/s
Stream mapping:
  Stream #0:1 (opus) -> concat:in0:a0
  Stream #1:0 (png) -> scale
  Stream #2:0 (png) -> scale
  Stream #3:0 (pcm_u8) -> concat:in1:a0
  concat -> Stream #0:0 (libx264)
  concat -> Stream #0:1 (aac)
Press [q] to stop, [?] for help
[libx264 @ 0x55ddc062c140] using SAR=1/1
[libx264 @ 0x55ddc062c140] using cpu capabilities: MMX2 SSE2Fast SSSE3 SSE4.2 AVX FMA3 BMI2 AVX2 AVX512
[libx264 @ 0x55ddc062c140] profile High 4:4:4 Predictive, level 1.3, 4:4:4, 8-bit
[libx264 @ 0x55ddc062c140] 264 - core 164 r3095 baee400 - H.264/MPEG-4 AVC codec - Copyleft 2003-2022 - http://www.videolan.org/x264.html - options: cabac=0 ref=1 deblock=0:0:0 analyse=0:0 me=dia subme=0 psy=1 psy_rd=1.00:0.00 mixed_ref=0 me_range=16 chroma_me=1 trellis=0 8x8dct=0 cqm=0 deadzone=21,11 fast_pskip=1 chroma_qp_offset=6 threads=6 lookahead_threads=1 sliced_threads=0 nr=0 decimate=1 interlaced=0 bluray_compat=0 constrained_intra=0 bframes=0 weightp=0 keyint=250 keyint_min=25 scenecut=0 intra_refresh=0 rc=crf mbtree=0 crf=23.0 qcomp=0.60 qpmin=0 qpmax=69 qpstep=4 ip_ratio=1.40 aq=0
Output #0, mp4, to 'data/65b2d70297d5832cdc698713/1706223419748/record_out/{f645decc-0050-4f7e-862f-09c3185dc028}.mp4':
  Metadata:
    encoder         : Lavf58.76.100
  Stream #0:0: Video: h264 (avc1 / 0x31637661), yuv444p(tv, progressive), 320x180 [SAR 1:1 DAR 16:9], q=2-31, 30 fps, 15360 tbn (default)
    Metadata:
      encoder         : Lavc58.134.100 libx264
    Side data:
      cpb: bitrate max/min/avg: 0/0/0 buffer size: 0 vbv_delay: N/A
  Stream #0:1: Audio: aac (LC) (mp4a / 0x6134706D), 48000 Hz, stereo, fltp, 128 kb/s (default)
    Metadata:
      encoder         : Lavc58.134.100 aac
frame=    1 fps=0.0 q=0.0 size=       0kB time=00:00:00.00 bitrate=N/A speed=   0x    frame=  130 fps=0.0 q=12.0 size=       0kB time=00:00:04.22 bitrate=   0.1kbits/s dup=22 drop=0 speed=7.65x    frame=  323 fps=306 q=12.0 size=       0kB time=00:00:10.50 bitrate=   0.0kbits/s dup=54 drop=0 speed=9.96x    frame=  487 fps=313 q=12.0 size=       0kB time=00:00:16.14 bitrate=   0.0kbits/s dup=81 drop=0 speed=10.4x    frame=  658 fps=320 q=12.0 size=       0kB time=00:00:21.81 bitrate=   0.0kbits/s dup=110 drop=0 speed=10.6x    frame=  822 fps=321 q=12.0 size=     256kB time=00:00:27.28 bitrate=  76.9kbits/s dup=137 drop=0 speed=10.7x    frame=  992 fps=324 q=12.0 size=     256kB time=00:00:32.84 bitrate=  63.9kbits/s dup=165 drop=0 speed=10.7x    frame= 1166 fps=328 q=12.0 size=     256kB time=00:00:38.60 bitrate=  54.3kbits/s dup=194 drop=0 speed=10.8x    frame= 1348 fps=332 q=12.0 size=     256kB time=00:00:44.83 bitrate=  46.8kbits/s dup=225 drop=0 speed=  11x    frame= 1525 fps=334 q=12.0 size=     512kB time=00:00:50.73 bitrate=  82.7kbits/s dup=254 drop=0 speed=11.1x    frame= 1703 fps=336 q=12.0 size=     512kB time=00:00:56.50 bitrate=  74.2kbits/s dup=284 drop=0 speed=11.2x    frame= 1859 fps=334 q=12.0 size=     512kB time=00:01:01.77 bitrate=  67.9kbits/s dup=310 drop=0 speed=11.1x    frame= 2042 fps=337 q=12.0 size=     768kB time=00:01:08.00 bitrate=  92.5kbits/s dup=340 drop=0 speed=11.2x    frame= 2234 fps=340 q=12.0 size=     768kB time=00:01:14.31 bitrate=  84.7kbits/s dup=372 drop=0 speed=11.3x    frame= 2419 fps=342 q=12.0 size=     768kB time=00:01:20.53 bitrate=  78.1kbits/s dup=403 drop=0 speed=11.4x    frame= 2624 fps=347 q=12.0 size=     768kB time=00:01:27.20 bitrate=  72.2kbits/s dup=437 drop=0 speed=11.5x    frame= 2808 fps=348 q=12.0 size=     768kB time=00:01:33.50 bitrate=  67.3kbits/s dup=468 drop=0 speed=11.6x    frame= 2966 fps=346 q=12.0 size=    1024kB time=00:01:38.78 bitrate=  84.9kbits/s dup=494 drop=0 speed=11.5x    frame= 3167 fps=349 q=12.0 size=    1024kB time=00:01:45.30 bitrate=  79.7kbits/s dup=528 drop=0 speed=11.6x    frame= 3344 fps=349 q=12.0 size=    1024kB time=00:01:51.38 bitrate=  75.3kbits/s dup=557 drop=0 speed=11.6x    frame= 3518 fps=349 q=12.0 size=    1024kB time=00:01:57.04 bitrate=  71.7kbits/s dup=586 drop=0 speed=11.6x    frame= 3724 fps=352 q=12.0 size=    1024kB time=00:02:04.03 bitrate=  67.6kbits/s dup=621 drop=0 speed=11.7x    frame= 3877 fps=350 q=12.0 size=    1280kB time=00:02:09.15 bitrate=  81.2kbits/s dup=646 drop=0 speed=11.7x    frame= 4073 fps=352 q=12.0 size=    1280kB time=00:02:15.64 bitrate=  77.3kbits/s dup=679 drop=0 speed=11.7x    frame= 4249 fps=352 q=12.0 size=    1280kB time=00:02:21.55 bitrate=  74.1kbits/s dup=708 drop=0 speed=11.7x    frame= 4454 fps=354 q=12.0 size=    1280kB time=00:02:28.22 bitrate=  70.7kbits/s dup=742 drop=0 speed=11.8x    frame= 4621 fps=353 q=12.0 size=    1280kB time=00:02:33.88 bitrate=  68.1kbits/s dup=770 drop=0 speed=11.8x    frame= 4799 fps=353 q=12.0 size=    1536kB time=00:02:39.72 bitrate=  78.8kbits/s dup=800 drop=0 speed=11.8x    frame= 4974 fps=353 q=12.0 size=    1536kB time=00:02:45.70 bitrate=  75.9kbits/s dup=829 drop=0 speed=11.8x    frame= 5177 fps=355 q=12.0 size=    1536kB time=00:02:52.30 bitrate=  73.0kbits/s dup=863 drop=0 speed=11.8x    frame= 5365 fps=356 q=12.0 size=    1536kB time=00:02:58.74 bitrate=  70.4kbits/s dup=894 drop=0 speed=11.9x    frame= 5516 fps=354 q=12.0 size=    1792kB time=00:03:03.78 bitrate=  79.9kbits/s dup=919 drop=0 speed=11.8x    frame= 5699 fps=354 q=12.0 size=    1792kB time=00:03:09.87 bitrate=  77.3kbits/s dup=950 drop=0 speed=11.8x    frame= 5874 fps=354 q=12.0 size=    1792kB time=00:03:15.53 bitrate=  75.1kbits/s dup=979 drop=0 speed=11.8x    More than 1000 frames duplicated
frame= 6058 fps=355 q=12.0 size=    2048kB time=00:03:21.83 bitrate=  83.1kbits/s dup=1010 drop=0 speed=11.8x    frame= 6265 fps=356 q=12.0 size=    2048kB time=00:03:28.75 bitrate=  80.4kbits/s dup=1044 drop=0 speed=11.9x    frame= 6431 fps=356 q=12.0 size=    2048kB time=00:03:34.10 bitrate=  78.4kbits/s dup=1072 drop=0 speed=11.8x    frame= 6628 fps=357 q=12.0 size=    2048kB time=00:03:40.81 bitrate=  76.0kbits/s dup=1105 drop=0 speed=11.9x    frame= 6818 fps=357 q=12.0 size=    2048kB time=00:03:47.00 bitrate=  73.9kbits/s dup=1136 drop=0 speed=11.9x    frame= 7000 fps=357 q=12.0 size=    2048kB time=00:03:53.23 bitrate=  71.9kbits/s dup=1167 drop=0 speed=11.9x    frame= 7206 fps=359 q=12.0 size=    2304kB time=00:03:59.93 bitrate=  78.7kbits/s dup=1201 drop=0 speed=11.9x    frame= 7391 fps=359 q=12.0 size=    2304kB time=00:04:06.26 bitrate=  76.6kbits/s dup=1232 drop=0 speed=  12x    frame= 7570 fps=359 q=12.0 size=    2304kB time=00:04:12.06 bitrate=  74.9kbits/s dup=1262 drop=0 speed=  12x    frame= 7781 fps=360 q=12.0 size=    2304kB time=00:04:19.28 bitrate=  72.8kbits/s dup=1297 drop=0 speed=  12x    frame= 7968 fps=361 q=12.0 size=    2304kB time=00:04:25.50 bitrate=  71.1kbits/s dup=1328 drop=0 speed=  12x    frame= 8177 fps=362 q=12.0 size=    2304kB time=00:04:32.46 bitrate=  69.3kbits/s dup=1363 drop=0 speed=12.1x    frame= 8371 fps=362 q=12.0 size=    2560kB time=00:04:38.76 bitrate=  75.2kbits/s dup=1395 drop=0 speed=12.1x    frame= 8552 fps=362 q=12.0 size=    2560kB time=00:04:45.01 bitrate=  73.6kbits/s dup=1425 drop=0 speed=12.1x    frame= 8742 fps=363 q=12.0 size=    2560kB time=00:04:51.28 bitrate=  72.0kbits/s dup=1457 drop=0 speed=12.1x    frame= 8917 fps=363 q=12.0 size=    2560kB time=00:04:57.04 bitrate=  70.6kbits/s dup=1486 drop=0 speed=12.1x    frame= 9119 fps=363 q=12.0 size=    2560kB time=00:05:03.86 bitrate=  69.0kbits/s dup=1520 drop=0 speed=12.1x    frame= 9305 fps=363 q=12.0 size=    2816kB time=00:05:09.90 bitrate=  74.4kbits/s dup=1551 drop=0 speed=12.1x    frame= 9486 fps=363 q=12.0 size=    2816kB time=00:05:16.10 bitrate=  73.0kbits/s dup=1581 drop=0 speed=12.1x    frame= 9665 fps=363 q=12.0 size=    2816kB time=00:05:22.07 bitrate=  71.6kbits/s dup=1611 drop=0 speed=12.1x    frame= 9865 fps=364 q=12.0 size=    3072kB time=00:05:28.71 bitrate=  76.6kbits/s dup=1644 drop=0 speed=12.1x    frame=10075 fps=365 q=12.0 size=    3072kB time=00:05:35.58 bitrate=  75.0kbits/s dup=1679 drop=0 speed=12.2x    frame=10250 fps=365 q=12.0 size=    3072kB time=00:05:41.40 bitrate=  73.7kbits/s dup=1708 drop=0 speed=12.1x    frame=10456 fps=365 q=12.0 size=    3072kB time=00:05:48.36 bitrate=  72.2kbits/s dup=1743 drop=0 speed=12.2x    frame=10668 fps=366 q=12.0 size=    3072kB time=00:05:55.33 bitrate=  70.8kbits/s dup=1778 drop=0 speed=12.2x    frame=10855 fps=367 q=12.0 size=    3072kB time=00:06:01.56 bitrate=  69.6kbits/s dup=1809 drop=0 speed=12.2x    frame=11048 fps=367 q=12.0 size=    3072kB time=00:06:08.08 bitrate=  68.4kbits/s dup=1841 drop=0 speed=12.2x    frame=11238 fps=367 q=12.0 size=    3328kB time=00:06:14.40 bitrate=  72.8kbits/s dup=1873 drop=0 speed=12.2x    [mp4 @ 0x55ddc062a0c0] Starting second pass: moving the moov atom to the beginning of the file
frame=11430 fps=368 q=-1.0 Lsize=    3588kB time=00:06:20.96 bitrate=  77.1kbits/s dup=1905 drop=0 speed=12.3x    
video:258kB audio:3120kB subtitle:0kB other streams:0kB global headers:0kB muxing overhead: 6.215892%
[libx264 @ 0x55ddc062c140] frame I:46    Avg QP: 9.24  size:  2949
[libx264 @ 0x55ddc062c140] frame P:11384 Avg QP:12.01  size:    11
[libx264 @ 0x55ddc062c140] mb I  I16..4: 100.0%  0.0%  0.0%
[libx264 @ 0x55ddc062c140] mb P  I16..4:  0.0%  0.0%  0.0%  P16..4:  0.0%  0.0%  0.0%  0.0%  0.0%    skip:100.0%
[libx264 @ 0x55ddc062c140] coded y,u,v intra: 4.8% 0.0% 0.0% inter: 0.0% 0.0% 0.0%
[libx264 @ 0x55ddc062c140] i16 v,h,dc,p: 91%  5%  4%  0%
[libx264 @ 0x55ddc062c140] kb/s:5.52
[aac @ 0x55ddc06201c0] Qavg: 23991.941
Input #0, matroska,webm, from 'data/65b2d70297d5832cdc698713/1706223419748/record_out/524b0d34-ff20-41a3-842f-cd77d67f1d4f-audio.webm':
  Metadata:
    encoder         : ebml-go.webm.BlockWriter
    creation_time   : 2024-01-25T21:47:54.804000Z
  Duration: N/A, start: 0.000000, bitrate: N/A
  Stream #0:0(eng): Subtitle: webvtt (default) (metadata)
    Metadata:
      title           : VttAudioDroppedPacketMeta
  Stream #0:1(eng): Audio: opus, 48000 Hz, stereo, fltp (default)
    Metadata:
      title           : Audio
Input #1, png_pipe, from 'data/black-bg.png':
  Duration: N/A, bitrate: N/A
  Stream #1:0: Video: png, rgb24(pc), 1280x720 [SAR 3779:3779 DAR 16:9], 25 fps, 25 tbr, 25 tbn, 25 tbc
Input #2, png_pipe, from 'data/black-bg.png':
  Duration: N/A, bitrate: N/A
  Stream #2:0: Video: png, rgb24(pc), 1280x720 [SAR 3779:3779 DAR 16:9], 25 fps, 25 tbr, 25 tbn, 25 tbc
Input #3, lavfi, from 'anullsrc':
  Duration: N/A, start: 0.000000, bitrate: 705 kb/s
  Stream #3:0: Audio: pcm_u8, 44100 Hz, stereo, u8, 705 kb/s
Stream mapping:
  Stream #0:1 (opus) -> concat:in0:a0
  Stream #1:0 (png) -> scale
  Stream #2:0 (png) -> scale
  Stream #3:0 (pcm_u8) -> concat:in1:a0
  concat -> Stream #0:0 (libx264)
  concat -> Stream #0:1 (aac)
Press [q] to stop, [?] for help
[libx264 @ 0x5624232d7000] using SAR=1/1
[libx264 @ 0x5624232d7000] using cpu capabilities: MMX2 SSE2Fast SSSE3 SSE4.2 AVX FMA3 BMI2 AVX2 AVX512
[libx264 @ 0x5624232d7000] profile High 4:4:4 Predictive, level 1.3, 4:4:4, 8-bit
[libx264 @ 0x5624232d7000] 264 - core 164 r3095 baee400 - H.264/MPEG-4 AVC codec - Copyleft 2003-2022 - http://www.videolan.org/x264.html - options: cabac=0 ref=1 deblock=0:0:0 analyse=0:0 me=dia subme=0 psy=1 psy_rd=1.00:0.00 mixed_ref=0 me_range=16 chroma_me=1 trellis=0 8x8dct=0 cqm=0 deadzone=21,11 fast_pskip=1 chroma_qp_offset=6 threads=6 lookahead_threads=1 sliced_threads=0 nr=0 decimate=1 interlaced=0 bluray_compat=0 constrained_intra=0 bframes=0 weightp=0 keyint=250 keyint_min=25 scenecut=0 intra_refresh=0 rc=crf mbtree=0 crf=23.0 qcomp=0.60 qpmin=0 qpmax=69 qpstep=4 ip_ratio=1.40 aq=0
Output #0, mp4, to 'data/65b2d70297d5832cdc698713/1706223419748/record_out/cff26652-46b4-4235-af35-90d12ff317a7.mp4':
  Metadata:
    encoder         : Lavf58.76.100
  Stream #0:0: Video: h264 (avc1 / 0x31637661), yuv444p(tv, progressive), 320x180 [SAR 1:1 DAR 16:9], q=2-31, 30 fps, 15360 tbn (default)
    Metadata:
      encoder         : Lavc58.134.100 libx264
    Side data:
      cpb: bitrate max/min/avg: 0/0/0 buffer size: 0 vbv_delay: N/A
  Stream #0:1: Audio: aac (LC) (mp4a / 0x6134706D), 48000 Hz, stereo, fltp, 128 kb/s (default)
    Metadata:
      encoder         : Lavc58.134.100 aac
frame=    1 fps=0.0 q=0.0 size=       0kB time=00:00:00.00 bitrate=N/A speed=   0x    frame=  184 fps=0.0 q=12.0 size=       0kB time=00:00:05.86 bitrate=   0.1kbits/s dup=31 drop=0 speed=10.6x    frame=  373 fps=354 q=12.0 size=       0kB time=00:00:12.36 bitrate=   0.0kbits/s dup=62 drop=0 speed=11.7x    frame=  565 fps=363 q=12.0 size=       0kB time=00:00:18.74 bitrate=   0.0kbits/s dup=94 drop=0 speed=12.1x    frame=  762 fps=371 q=12.0 size=     256kB time=00:00:25.13 bitrate=  83.5kbits/s dup=127 drop=0 speed=12.2x    frame=  960 fps=376 q=12.0 size=     256kB time=00:00:31.92 bitrate=  65.7kbits/s dup=160 drop=0 speed=12.5x    frame= 1150 fps=376 q=12.0 size=     256kB time=00:00:38.21 bitrate=  54.9kbits/s dup=192 drop=0 speed=12.5x    frame= 1336 fps=376 q=12.0 size=     512kB time=00:00:44.43 bitrate=  94.4kbits/s dup=223 drop=0 speed=12.5x    frame= 1526 fps=376 q=12.0 size=     512kB time=00:00:50.80 bitrate=  82.6kbits/s dup=254 drop=0 speed=12.5x    frame= 1718 fps=377 q=12.0 size=     512kB time=00:00:57.17 bitrate=  73.4kbits/s dup=286 drop=0 speed=12.5x    frame= 1912 fps=378 q=12.0 size=     768kB time=00:01:03.59 bitrate=  98.9kbits/s dup=319 drop=0 speed=12.6x    frame= 2098 fps=377 q=12.0 size=     768kB time=00:01:09.82 bitrate=  90.1kbits/s dup=350 drop=0 speed=12.6x    frame= 2282 fps=376 q=12.0 size=     768kB time=00:01:15.98 bitrate=  82.8kbits/s dup=380 drop=0 speed=12.5x    frame= 2483 fps=378 q=12.0 size=    1024kB time=00:01:22.50 bitrate= 101.7kbits/s dup=414 drop=0 speed=12.6x    frame= 2672 fps=378 q=12.0 size=    1024kB time=00:01:28.98 bitrate=  94.3kbits/s dup=445 drop=0 speed=12.6x    frame= 2870 fps=379 q=12.0 size=    1024kB time=00:01:35.40 bitrate=  87.9kbits/s dup=478 drop=0 speed=12.6x    frame= 3059 fps=379 q=12.0 size=    1280kB time=00:01:41.88 bitrate= 102.9kbits/s dup=510 drop=0 speed=12.6x    frame= 3246 fps=379 q=12.0 size=    1280kB time=00:01:47.93 bitrate=  97.2kbits/s dup=541 drop=0 speed=12.6x    frame= 3439 fps=379 q=12.0 size=    1280kB time=00:01:54.54 bitrate=  91.5kbits/s dup=573 drop=0 speed=12.6x    frame= 3624 fps=379 q=12.0 size=    1536kB time=00:02:00.70 bitrate= 104.3kbits/s dup=604 drop=0 speed=12.6x    frame= 3815 fps=379 q=12.0 size=    1536kB time=00:02:07.06 bitrate=  99.0kbits/s dup=636 drop=0 speed=12.6x    frame= 4002 fps=379 q=12.0 size=    1536kB time=00:02:13.28 bitrate=  94.4kbits/s dup=667 drop=0 speed=12.6x    frame= 4193 fps=379 q=12.0 size=    1536kB time=00:02:19.66 bitrate=  90.1kbits/s dup=699 drop=0 speed=12.6x    frame= 4386 fps=379 q=12.0 size=    1792kB time=00:02:26.11 bitrate= 100.5kbits/s dup=731 drop=0 speed=12.6x    frame= 4577 fps=379 q=12.0 size=    1792kB time=00:02:32.38 bitrate=  96.3kbits/s dup=763 drop=0 speed=12.6x    frame= 4780 fps=380 q=12.0 size=    1792kB time=00:02:39.22 bitrate=  92.2kbits/s dup=797 drop=0 speed=12.7x    frame= 4975 fps=381 q=12.0 size=    2048kB time=00:02:45.72 bitrate= 101.2kbits/s dup=829 drop=0 speed=12.7x    frame= 5167 fps=381 q=12.0 size=    2048kB time=00:02:51.96 bitrate=  97.6kbits/s dup=861 drop=0 speed=12.7x    frame= 5346 fps=380 q=12.0 size=    2048kB time=00:02:58.11 bitrate=  94.2kbits/s dup=891 drop=0 speed=12.7x    frame= 5546 fps=381 q=12.0 size=    2048kB time=00:03:04.60 bitrate=  90.9kbits/s dup=924 drop=0 speed=12.7x    frame= 5746 fps=381 q=12.0 size=    2304kB time=00:03:11.43 bitrate=  98.6kbits/s dup=958 drop=0 speed=12.7x    frame= 5938 fps=381 q=12.0 size=    2304kB time=00:03:17.66 bitrate=  95.5kbits/s dup=990 drop=0 speed=12.7x    More than 1000 frames duplicated
frame= 6124 fps=381 q=12.0 size=    2304kB time=00:03:24.03 bitrate=  92.5kbits/s dup=1021 drop=0 speed=12.7x    frame= 6323 fps=381 q=12.0 size=    2304kB time=00:03:30.67 bitrate=  89.6kbits/s dup=1054 drop=0 speed=12.7x    frame= 6515 fps=381 q=12.0 size=    2560kB time=00:03:36.93 bitrate=  96.7kbits/s dup=1086 drop=0 speed=12.7x    frame= 6716 fps=382 q=12.0 size=    2560kB time=00:03:43.79 bitrate=  93.7kbits/s dup=1119 drop=0 speed=12.7x    frame= 6907 fps=382 q=12.0 size=    2560kB time=00:03:50.13 bitrate=  91.1kbits/s dup=1151 drop=0 speed=12.7x    frame= 7093 fps=382 q=12.0 size=    2816kB time=00:03:56.32 bitrate=  97.6kbits/s dup=1182 drop=0 speed=12.7x    frame= 7279 fps=381 q=12.0 size=    2816kB time=00:04:02.52 bitrate=  95.1kbits/s dup=1213 drop=0 speed=12.7x    frame= 7474 fps=382 q=12.0 size=    2816kB time=00:04:09.03 bitrate=  92.6kbits/s dup=1246 drop=0 speed=12.7x    frame= 7663 fps=381 q=12.0 size=    3072kB time=00:04:15.35 bitrate=  98.6kbits/s dup=1277 drop=0 speed=12.7x    frame= 7858 fps=382 q=12.0 size=    3072kB time=00:04:21.66 bitrate=  96.2kbits/s dup=1310 drop=0 speed=12.7x    frame= 8041 fps=381 q=12.0 size=    3072kB time=00:04:27.94 bitrate=  93.9kbits/s dup=1340 drop=0 speed=12.7x    frame= 8227 fps=381 q=12.0 size=    3328kB time=00:04:34.15 bitrate=  99.4kbits/s dup=1371 drop=0 speed=12.7x    frame= 8418 fps=381 q=12.0 size=    3328kB time=00:04:40.49 bitrate=  97.2kbits/s dup=1403 drop=0 speed=12.7x    frame= 8603 fps=381 q=12.0 size=    3328kB time=00:04:46.66 bitrate=  95.1kbits/s dup=1434 drop=0 speed=12.7x    frame= 8797 fps=381 q=12.0 size=    3584kB time=00:04:52.96 bitrate= 100.2kbits/s dup=1466 drop=0 speed=12.7x    frame= 8992 fps=381 q=12.0 size=    3584kB time=00:04:59.46 bitrate=  98.0kbits/s dup=1499 drop=0 speed=12.7x    frame= 9175 fps=381 q=12.0 size=    3584kB time=00:05:05.65 bitrate=  96.1kbits/s dup=1529 drop=0 speed=12.7x    frame= 9370 fps=381 q=12.0 size=    3840kB time=00:05:12.19 bitrate= 100.8kbits/s dup=1562 drop=0 speed=12.7x    frame= 9554 fps=381 q=12.0 size=    3840kB time=00:05:18.38 bitrate=  98.8kbits/s dup=1592 drop=0 speed=12.7x    frame= 9756 fps=381 q=13.0 size=    3840kB time=00:05:24.93 bitrate=  96.8kbits/s dup=1626 drop=0 speed=12.7x    [mp4 @ 0x5624232d24c0] Starting second pass: moving the moov atom to the beginning of the file
frame= 9900 fps=381 q=-1.0 Lsize=    4224kB time=00:05:29.96 bitrate= 104.9kbits/s dup=1650 drop=0 speed=12.7x    
video:227kB audio:3775kB subtitle:0kB other streams:0kB global headers:0kB muxing overhead: 5.541198%
[libx264 @ 0x5624232d7000] frame I:40    Avg QP: 9.28  size:  3055
[libx264 @ 0x5624232d7000] frame P:9860  Avg QP:12.01  size:    11
[libx264 @ 0x5624232d7000] mb I  I16..4: 100.0%  0.0%  0.0%
[libx264 @ 0x5624232d7000] mb P  I16..4:  0.0%  0.0%  0.0%  P16..4:  0.0%  0.0%  0.0%  0.0%  0.0%    skip:100.0%
[libx264 @ 0x5624232d7000] coded y,u,v intra: 4.8% 0.0% 0.0% inter: 0.0% 0.0% 0.0%
[libx264 @ 0x5624232d7000] i16 v,h,dc,p: 91%  5%  4%  0%
[libx264 @ 0x5624232d7000] kb/s:5.62
[aac @ 0x5624232c8e40] Qavg: 919.291
ffmpeg version 4.4 Copyright (c) 2000-2021 the FFmpeg developers
  built with gcc 12 (Debian 12.2.0-14)
  configuration: --enable-nonfree --enable-gpl --enable-libx264 --enable-libfontconfig --enable-libfreetype --enable-libvpx --enable-libopus
  libavutil      56. 70.100 / 56. 70.100
  libavcodec     58.134.100 / 58.134.100
  libavformat    58. 76.100 / 58. 76.100
  libavdevice    58. 13.100 / 58. 13.100
  libavfilter     7.110.100 /  7.110.100
  libswscale      5.  9.100 /  5.  9.100
  libswresample   3.  9.100 /  3.  9.100
  libpostproc    55.  9.100 / 55.  9.100
Input #0, png_pipe, from 'data/black-bg.png':
  Duration: N/A, bitrate: N/A
  Stream #0:0: Video: png, rgb24(pc), 1280x720 [SAR 3779:3779 DAR 16:9], 25 fps, 25 tbr, 25 tbn, 25 tbc
Input #1, png_pipe, from 'data/black-bg.png':
  Duration: N/A, bitrate: N/A
  Stream #1:0: Video: png, rgb24(pc), 1280x720 [SAR 3779:3779 DAR 16:9], 25 fps, 25 tbr, 25 tbn, 25 tbc
Stream mapping:
  Stream #0:0 (png) -> scale
  Stream #0:0 (png) -> scale
  overlay -> Stream #0:0 (libx264)
Press [q] to stop, [?] for help
[libx264 @ 0x56189a8c9a00] using SAR=1/1
[libx264 @ 0x56189a8c9a00] using cpu capabilities: MMX2 SSE2Fast SSSE3 SSE4.2 AVX FMA3 BMI2 AVX2 AVX512
[libx264 @ 0x56189a8c9a00] profile High, level 3.1, 4:2:0, 8-bit
[libx264 @ 0x56189a8c9a00] 264 - core 164 r3095 baee400 - H.264/MPEG-4 AVC codec - Copyleft 2003-2022 - http://www.videolan.org/x264.html - options: cabac=1 ref=3 deblock=1:0:0 analyse=0x3:0x113 me=hex subme=7 psy=1 psy_rd=1.00:0.00 mixed_ref=1 me_range=16 chroma_me=1 trellis=1 8x8dct=1 cqm=0 deadzone=21,11 fast_pskip=1 chroma_qp_offset=-2 threads=22 lookahead_threads=3 sliced_threads=0 nr=0 decimate=1 interlaced=0 bluray_compat=0 constrained_intra=0 bframes=3 b_pyramid=2 b_adapt=1 b_bias=0 direct=1 weightb=1 open_gop=0 weightp=2 keyint=250 keyint_min=25 scenecut=40 intra_refresh=0 rc_lookahead=40 rc=crf mbtree=1 crf=23.0 qcomp=0.60 qpmin=0 qpmax=69 qpstep=4 ip_ratio=1.40 aq=1:1.00
Output #0, mp4, to 'data/65b2d70297d5832cdc698713/1706223419748/record_out/init_file.mp4':
  Metadata:
    encoder         : Lavf58.76.100
  Stream #0:0: Video: h264 (avc1 / 0x31637661), yuv420p(tv, progressive), 1280x720 [SAR 1:1 DAR 16:9], q=2-31, 25 fps, 12800 tbn (default)
    Metadata:
      encoder         : Lavc58.134.100 libx264
    Side data:
      cpb: bitrate max/min/avg: 0/0/0 buffer size: 0 vbv_delay: N/A
frame=    1 fps=0.0 q=0.0 size=       0kB time=00:00:00.00 bitrate=N/A speed=   0x    frame=   25 fps=0.0 q=-1.0 Lsize=       3kB time=00:00:00.88 bitrate=  27.5kbits/s speed=3.22x    
video:2kB audio:0kB subtitle:0kB other streams:0kB global headers:0kB muxing overhead: 63.621620%
[libx264 @ 0x56189a8c9a00] frame I:1     Avg QP: 9.00  size:   215
[libx264 @ 0x56189a8c9a00] frame P:6     Avg QP:10.17  size:    45
[libx264 @ 0x56189a8c9a00] frame B:18    Avg QP:12.67  size:    38
[libx264 @ 0x56189a8c9a00] consecutive B-frames:  4.0%  0.0%  0.0% 96.0%
[libx264 @ 0x56189a8c9a00] mb I  I16..4: 100.0%  0.0%  0.0%
[libx264 @ 0x56189a8c9a00] mb P  I16..4:  0.0%  0.0%  0.0%  P16..4:  0.0%  0.0%  0.0%  0.0%  0.0%    skip:100.0%
[libx264 @ 0x56189a8c9a00] mb B  I16..4:  0.0%  0.0%  0.0%  B16..8:  0.0%  0.0%  0.0%  direct: 0.0%  skip:100.0%
[libx264 @ 0x56189a8c9a00] 8x8 transform intra:0.0%
[libx264 @ 0x56189a8c9a00] coded y,uvDC,uvAC intra: 0.0% 0.0% 0.0% inter: 0.0% 0.0% 0.0%
[libx264 @ 0x56189a8c9a00] i16 v,h,dc,p: 98%  0%  2%  0%
[libx264 @ 0x56189a8c9a00] i8c dc,h,v,p: 100%  0%  0%  0%
[libx264 @ 0x56189a8c9a00] Weighted P-Frames: Y:0.0% UV:0.0%
[libx264 @ 0x56189a8c9a00] kb/s:9.28
Input #0, mov,mp4,m4a,3gp,3g2,mj2, from 'data/65b2d70297d5832cdc698713/1706223419748/record_out/init_file.mp4':
  Metadata:
    major_brand     : isom
    minor_version   : 512
    compatible_brands: isomiso2avc1mp41
    encoder         : Lavf58.76.100
  Duration: 00:00:01.00, start: 0.000000, bitrate: 24 kb/s
  Stream #0:0(und): Video: h264 (High) (avc1 / 0x31637661), yuv420p, 1280x720 [SAR 1:1 DAR 16:9], 14 kb/s, 25 fps, 25 tbr, 12800 tbn, 50 tbc (default)
    Metadata:
      handler_name    : VideoHandler
      vendor_id       : [0][0][0][0]
Input #1, mov,mp4,m4a,3gp,3g2,mj2, from 'data/65b2d70297d5832cdc698713/1706223419748/record_out/{f645decc-0050-4f7e-862f-09c3185dc028}.mp4':
  Metadata:
    major_brand     : isom
    minor_version   : 512
    compatible_brands: isomiso2avc1mp41
    encoder         : Lavf58.76.100
  Duration: 00:06:21.00, start: 0.000000, bitrate: 77 kb/s
  Stream #1:0(und): Video: h264 (High 4:4:4 Predictive) (avc1 / 0x31637661), yuv444p, 320x180 [SAR 1:1 DAR 16:9], 5 kb/s, 30 fps, 30 tbr, 15360 tbn, 60 tbc (default)
    Metadata:
      handler_name    : VideoHandler
      vendor_id       : [0][0][0][0]
  Stream #1:1(und): Audio: aac (LC) (mp4a / 0x6134706D), 48000 Hz, stereo, fltp, 67 kb/s (default)
    Metadata:
      handler_name    : SoundHandler
      vendor_id       : [0][0][0][0]
Input #2, mov,mp4,m4a,3gp,3g2,mj2, from 'data/65b2d70297d5832cdc698713/1706223419748/record_out/cff26652-46b4-4235-af35-90d12ff317a7.mp4':
  Metadata:
    major_brand     : isom
    minor_version   : 512
    compatible_brands: isomiso2avc1mp41
    encoder         : Lavf58.76.100
  Duration: 00:05:30.00, start: 0.000000, bitrate: 104 kb/s
  Stream #2:0(und): Video: h264 (High 4:4:4 Predictive) (avc1 / 0x31637661), yuv444p, 320x180 [SAR 1:1 DAR 16:9], 5 kb/s, 30 fps, 30 tbr, 15360 tbn, 60 tbc (default)
    Metadata:
      handler_name    : VideoHandler
      vendor_id       : [0][0][0][0]
  Stream #2:1(und): Audio: aac (LC) (mp4a / 0x6134706D), 48000 Hz, stereo, fltp, 93 kb/s (default)
    Metadata:
      handler_name    : SoundHandler
      vendor_id       : [0][0][0][0]
Stream mapping:
  Stream #0:0 (h264) -> overlay:main
  Stream #1:0 (h264) -> scale
  Stream #1:1 (aac) -> volume
  Stream #2:0 (h264) -> scale
  Stream #2:1 (aac) -> volume
  amix -> Stream #0:0 (aac)
  overlay -> Stream #0:1 (libx264)
Press [q] to stop, [?] for help
-async is forwarded to lavfi similarly to -af aresample=async=1:min_hard_comp=0.100000:first_pts=0.
    Last message repeated 1 times
[libx264 @ 0x5616c0e9df00] using SAR=1/1
[libx264 @ 0x5616c0e9df00] using cpu capabilities: MMX2 SSE2Fast SSSE3 SSE4.2 AVX FMA3 BMI2 AVX2 AVX512
[libx264 @ 0x5616c0e9df00] profile High, level 3.1, 4:2:0, 8-bit
[libx264 @ 0x5616c0e9df00] 264 - core 164 r3095 baee400 - H.264/MPEG-4 AVC codec - Copyleft 2003-2022 - http://www.videolan.org/x264.html - options: cabac=1 ref=3 deblock=1:0:0 analyse=0x3:0x113 me=hex subme=7 psy=1 psy_rd=1.00:0.00 mixed_ref=1 me_range=16 chroma_me=1 trellis=1 8x8dct=1 cqm=0 deadzone=21,11 fast_pskip=1 chroma_qp_offset=-2 threads=22 lookahead_threads=3 sliced_threads=0 nr=0 decimate=1 interlaced=0 bluray_compat=0 constrained_intra=0 bframes=3 b_pyramid=2 b_adapt=1 b_bias=0 direct=1 weightb=1 open_gop=0 weightp=2 keyint=250 keyint_min=25 scenecut=40 intra_refresh=0 rc_lookahead=40 rc=crf mbtree=1 crf=22.0 qcomp=0.60 qpmin=0 qpmax=69 qpstep=4 ip_ratio=1.40 aq=1:1.00
Output #0, mp4, to 'data/65b2d70297d5832cdc698713/1706223419748/record_out/Rec-65b2d70297d5832cdc698713-1706219267800.mp4':
  Metadata:
    major_brand     : isom
    minor_version   : 512
    compatible_brands: isomiso2avc1mp41
    encoder         : Lavf58.76.100
  Stream #0:0: Audio: aac (LC) (mp4a / 0x6134706D), 48000 Hz, stereo, fltp, 128 kb/s (default)
    Metadata:
      encoder         : Lavc58.134.100 aac
  Stream #0:1: Video: h264 (avc1 / 0x31637661), yuv420p(progressive), 1280x720 [SAR 1:1 DAR 16:9], q=2-31, 25 fps, 12800 tbn (default)
    Metadata:
      encoder         : Lavc58.134.100 libx264
    Side data:
      cpb: bitrate max/min/avg: 0/0/0 buffer size: 0 vbv_delay: N/A
frame=    1 fps=0.0 q=0.0 size=       0kB time=00:00:00.44 bitrate=   0.9kbits/s speed=11.4x    frame=  107 fps=0.0 q=27.0 size=       0kB time=00:00:04.13 bitrate=   0.1kbits/s dup=0 drop=15 speed=7.65x    frame=  265 fps=254 q=27.0 size=       0kB time=00:00:10.53 bitrate=   0.0kbits/s dup=0 drop=47 speed=10.1x    frame=  398 fps=258 q=27.0 size=       0kB time=00:00:16.08 bitrate=   0.0kbits/s dup=0 drop=73 speed=10.4x    frame=  537 fps=263 q=27.0 size=     256kB time=00:00:21.61 bitrate=  97.1kbits/s dup=0 drop=101 speed=10.6x    frame=  678 fps=267 q=27.0 size=     256kB time=00:00:27.39 bitrate=  76.6kbits/s dup=0 drop=129 speed=10.8x    frame=  823 fps=270 q=27.0 size=     256kB time=00:00:32.76 bitrate=  64.0kbits/s dup=0 drop=158 speed=10.8x    frame=  960 fps=271 q=27.0 size=     512kB time=00:00:38.29 bitrate= 109.5kbits/s dup=0 drop=186 speed=10.8x    frame= 1097 fps=271 q=27.0 size=     512kB time=00:00:44.01 bitrate=  95.3kbits/s dup=0 drop=213 speed=10.9x    frame= 1242 fps=273 q=27.0 size=     512kB time=00:00:50.00 bitrate=  83.9kbits/s dup=0 drop=242 speed=  11x    frame= 1383 fps=274 q=27.0 size=     768kB time=00:00:55.44 bitrate= 113.5kbits/s dup=0 drop=270 speed=  11x    frame= 1521 fps=274 q=27.0 size=     768kB time=00:01:00.88 bitrate= 103.3kbits/s dup=0 drop=298 speed=  11x    frame= 1660 fps=275 q=27.0 size=    1024kB time=00:01:06.70 bitrate= 125.8kbits/s dup=0 drop=326 speed=  11x    frame= 1804 fps=276 q=27.0 size=    1024kB time=00:01:12.08 bitrate= 116.4kbits/s dup=0 drop=355 speed=  11x    frame= 1947 fps=276 q=27.0 size=    1024kB time=00:01:18.18 bitrate= 107.3kbits/s dup=0 drop=383 speed=11.1x    frame= 2092 fps=277 q=27.0 size=    1280kB time=00:01:23.62 bitrate= 125.4kbits/s dup=0 drop=412 speed=11.1x    frame= 2224 fps=276 q=27.0 size=    1280kB time=00:01:29.25 bitrate= 117.5kbits/s dup=0 drop=439 speed=11.1x    frame= 2356 fps=276 q=27.0 size=    1280kB time=00:01:34.33 bitrate= 111.2kbits/s dup=0 drop=465 speed=  11x    frame= 2477 fps=274 q=27.0 size=    1536kB time=00:01:39.00 bitrate= 127.1kbits/s dup=0 drop=489 speed=10.9x    frame= 2592 fps=271 q=27.0 size=    1536kB time=00:01:43.55 bitrate= 121.5kbits/s dup=0 drop=512 speed=10.8x    frame= 2712 fps=270 q=27.0 size=    1536kB time=00:01:48.80 bitrate= 115.7kbits/s dup=0 drop=536 speed=10.8x    frame= 2837 fps=269 q=27.0 size=    1792kB time=00:01:53.38 bitrate= 129.5kbits/s dup=0 drop=561 speed=10.7x    frame= 2956 fps=267 q=27.0 size=    1792kB time=00:01:58.16 bitrate= 124.2kbits/s dup=0 drop=585 speed=10.7x    frame= 3080 fps=266 q=27.0 size=    1792kB time=00:02:03.20 bitrate= 119.2kbits/s dup=0 drop=610 speed=10.7x    frame= 3220 fps=267 q=27.0 size=    1792kB time=00:02:09.08 bitrate= 113.7kbits/s dup=0 drop=638 speed=10.7x    frame= 3355 fps=267 q=27.0 size=    2048kB time=00:02:14.52 bitrate= 124.7kbits/s dup=0 drop=665 speed=10.7x    frame= 3496 fps=268 q=27.0 size=    2048kB time=00:02:20.16 bitrate= 119.7kbits/s dup=0 drop=693 speed=10.7x    frame= 3633 fps=268 q=27.0 size=    2048kB time=00:02:25.38 bitrate= 115.4kbits/s dup=0 drop=720 speed=10.7x    frame= 3771 fps=268 q=27.0 size=    2304kB time=00:02:31.10 bitrate= 124.9kbits/s dup=0 drop=748 speed=10.7x    frame= 3903 fps=268 q=27.0 size=    2304kB time=00:02:36.37 bitrate= 120.7kbits/s dup=0 drop=774 speed=10.7x    frame= 4040 fps=268 q=27.0 size=    2304kB time=00:02:41.57 bitrate= 116.8kbits/s dup=0 drop=802 speed=10.7x    frame= 4174 fps=268 q=27.0 size=    2560kB time=00:02:47.27 bitrate= 125.4kbits/s dup=0 drop=829 speed=10.7x    frame= 4305 fps=268 q=27.0 size=    2560kB time=00:02:52.20 bitrate= 121.8kbits/s dup=0 drop=855 speed=10.7x    frame= 4446 fps=268 q=27.0 size=    2816kB time=00:02:57.74 bitrate= 129.8kbits/s dup=0 drop=883 speed=10.7x    frame= 4578 fps=268 q=27.0 size=    2816kB time=00:03:03.36 bitrate= 125.8kbits/s dup=0 drop=909 speed=10.7x    frame= 4714 fps=268 q=27.0 size=    2816kB time=00:03:08.50 bitrate= 122.4kbits/s dup=0 drop=937 speed=10.7x    frame= 4843 fps=268 q=27.0 size=    3072kB time=00:03:13.81 bitrate= 129.8kbits/s dup=0 drop=962 speed=10.7x    frame= 4978 fps=268 q=27.0 size=    3072kB time=00:03:19.40 bitrate= 126.2kbits/s dup=0 drop=989 speed=10.7x    frame= 5116 fps=268 q=27.0 size=    3072kB time=00:03:24.50 bitrate= 123.1kbits/s dup=0 drop=1017 speed=10.7x    frame= 5243 fps=268 q=27.0 size=    3072kB time=00:03:30.09 bitrate= 119.8kbits/s dup=0 drop=1042 speed=10.7x    frame= 5378 fps=268 q=27.0 size=    3328kB time=00:03:34.95 bitrate= 126.8kbits/s dup=0 drop=1069 speed=10.7x    frame= 5508 fps=268 q=27.0 size=    3328kB time=00:03:40.60 bitrate= 123.6kbits/s dup=0 drop=1095 speed=10.7x    frame= 5644 fps=268 q=27.0 size=    3328kB time=00:03:45.68 bitrate= 120.8kbits/s dup=0 drop=1123 speed=10.7x    frame= 5773 fps=268 q=27.0 size=    3584kB time=00:03:51.12 bitrate= 127.0kbits/s dup=0 drop=1148 speed=10.7x    frame= 5907 fps=268 q=27.0 size=    3584kB time=00:03:56.13 bitrate= 124.3kbits/s dup=0 drop=1175 speed=10.7x    frame= 6048 fps=268 q=27.0 size=    3584kB time=00:04:01.87 bitrate= 121.4kbits/s dup=0 drop=1203 speed=10.7x    frame= 6184 fps=268 q=27.0 size=    3840kB time=00:04:07.70 bitrate= 127.0kbits/s dup=0 drop=1231 speed=10.7x    frame= 6319 fps=268 q=27.0 size=    3840kB time=00:04:12.69 bitrate= 124.5kbits/s dup=0 drop=1258 speed=10.7x    frame= 6450 fps=268 q=27.0 size=    3840kB time=00:04:18.30 bitrate= 121.8kbits/s dup=0 drop=1284 speed=10.7x    frame= 6587 fps=268 q=27.0 size=    4096kB time=00:04:23.82 bitrate= 127.2kbits/s dup=0 drop=1311 speed=10.7x    frame= 6718 fps=268 q=27.0 size=    4096kB time=00:04:28.62 bitrate= 124.9kbits/s dup=0 drop=1337 speed=10.7x    frame= 6855 fps=268 q=27.0 size=    4096kB time=00:04:34.51 bitrate= 122.2kbits/s dup=0 drop=1365 speed=10.7x    frame= 6997 fps=268 q=27.0 size=    4352kB time=00:04:39.74 bitrate= 127.4kbits/s dup=0 drop=1393 speed=10.7x    frame= 7129 fps=268 q=27.0 size=    4352kB time=00:04:45.48 bitrate= 124.9kbits/s dup=0 drop=1420 speed=10.7x    frame= 7264 fps=268 q=27.0 size=    4352kB time=00:04:50.85 bitrate= 122.6kbits/s dup=0 drop=1447 speed=10.7x    frame= 7402 fps=268 q=27.0 size=    4608kB time=00:04:55.95 bitrate= 127.5kbits/s dup=0 drop=1474 speed=10.7x    frame= 7528 fps=268 q=27.0 size=    4608kB time=00:05:01.41 bitrate= 125.2kbits/s dup=0 drop=1499 speed=10.7x    frame= 7662 fps=268 q=27.0 size=    4608kB time=00:05:06.58 bitrate= 123.1kbits/s dup=0 drop=1526 speed=10.7x    frame= 7800 fps=268 q=27.0 size=    4864kB time=00:05:12.32 bitrate= 127.6kbits/s dup=0 drop=1554 speed=10.7x    frame= 7923 fps=268 q=27.0 size=    4864kB time=00:05:17.18 bitrate= 125.6kbits/s dup=0 drop=1578 speed=10.7x    frame= 8060 fps=268 q=27.0 size=    4864kB time=00:05:22.68 bitrate= 123.5kbits/s dup=0 drop=1606 speed=10.7x    frame= 8198 fps=268 q=27.0 size=    5120kB time=00:05:27.80 bitrate= 128.0kbits/s dup=0 drop=1633 speed=10.7x    frame= 8333 fps=268 q=27.0 size=    5120kB time=00:05:33.16 bitrate= 125.9kbits/s dup=0 drop=1660 speed=10.7x    frame= 8465 fps=268 q=27.0 size=    5120kB time=00:05:38.96 bitrate= 123.7kbits/s dup=0 drop=1687 speed=10.7x    frame= 8627 fps=269 q=27.0 size=    5120kB time=00:05:45.00 bitrate= 121.6kbits/s dup=0 drop=1719 speed=10.8x    frame= 8803 fps=270 q=27.0 size=    5376kB time=00:05:52.08 bitrate= 125.1kbits/s dup=0 drop=1754 speed=10.8x    frame= 8970 fps=271 q=27.0 size=    5376kB time=00:05:59.14 bitrate= 122.6kbits/s dup=0 drop=1788 speed=10.9x    frame= 9138 fps=272 q=27.0 size=    5376kB time=00:06:05.86 bitrate= 120.4kbits/s dup=0 drop=1821 speed=10.9x    frame= 9312 fps=273 q=27.0 size=    5376kB time=00:06:12.80 bitrate= 118.1kbits/s dup=0 drop=1856 speed=10.9x    frame= 9468 fps=274 q=27.0 size=    5376kB time=00:06:18.68 bitrate= 116.3kbits/s dup=0 drop=1887 speed=10.9x    [mp4 @ 0x5616c0ed2a80] Starting second pass: moving the moov atom to the beginning of the file
frame= 9527 fps=274 q=-1.0 Lsize=    5896kB time=00:06:20.96 bitrate= 126.8kbits/s dup=0 drop=1899 speed=  11x    
video:615kB audio:4996kB subtitle:0kB other streams:0kB global headers:0kB muxing overhead: 5.077627%
[aac @ 0x5616c0e8b880] Qavg: 17677.934
[libx264 @ 0x5616c0e9df00] frame I:39    Avg QP: 5.51  size:  6376
[libx264 @ 0x5616c0e9df00] frame P:2401  Avg QP: 8.07  size:    47
[libx264 @ 0x5616c0e9df00] frame B:7087  Avg QP:11.67  size:    38
[libx264 @ 0x5616c0e9df00] consecutive B-frames:  0.8%  0.0%  0.0% 99.2%
[libx264 @ 0x5616c0e9df00] mb I  I16..4: 97.6%  0.1%  2.4%
[libx264 @ 0x5616c0e9df00] mb P  I16..4:  0.0%  0.0%  0.0%  P16..4:  0.0%  0.0%  0.0%  0.0%  0.0%    skip:100.0%
[libx264 @ 0x5616c0e9df00] mb B  I16..4:  0.0%  0.0%  0.0%  B16..8:  0.0%  0.0%  0.0%  direct: 0.0%  skip:100.0%  L0:46.3% L1:53.7% BI: 0.0%
[libx264 @ 0x5616c0e9df00] 8x8 transform intra:0.1% inter:92.0%
[libx264 @ 0x5616c0e9df00] coded y,uvDC,uvAC intra: 2.5% 0.0% 0.0% inter: 0.0% 0.0% 0.0%
[libx264 @ 0x5616c0e9df00] i16 v,h,dc,p: 98%  0%  2%  0%
[libx264 @ 0x5616c0e9df00] i8 v,h,dc,ddl,ddr,vr,hd,vl,hu:  1% 28% 24%  0%  0%  0% 13% 11% 22%
[libx264 @ 0x5616c0e9df00] i4 v,h,dc,ddl,ddr,vr,hd,vl,hu: 22% 26% 19%  3%  6%  7%  6%  5%  6%
[libx264 @ 0x5616c0e9df00] i8c dc,h,v,p: 100%  0%  0%  0%
[libx264 @ 0x5616c0e9df00] Weighted P-Frames: Y:0.0% UV:0.0%
[libx264 @ 0x5616c0e9df00] ref P L0: 92.5%  7.5%
[libx264 @ 0x5616c0e9df00] ref B L0: 70.1% 29.9%
[libx264 @ 0x5616c0e9df00] kb/s:13.21
